<mxfile host="Electron" modified="2023-10-04T09:23:05.690Z" agent="5.0 (Windows NT 10.0; Win64; x64) AppleWebKit/537.36 (KHTML, like Gecko) draw.io/20.3.0 Chrome/104.0.5112.114 Electron/20.1.3 Safari/537.36" etag="DA-30lthXsk5tgx0ys38" compressed="false" version="20.3.0" type="device">
  <diagram name="ND0003" id="1CP9VX86ncTdAmcYDIcw">
    <mxGraphModel dx="460" dy="312" grid="0" gridSize="2" guides="1" tooltips="1" connect="1" arrows="1" fold="1" page="1" pageScale="1" pageWidth="1169" pageHeight="827" math="0" shadow="0">
      <root>
        <mxCell id="22vkG-h5v2N9dKBLQ-ZE-0" />
        <mxCell id="22vkG-h5v2N9dKBLQ-ZE-135" value="Label" style="" parent="22vkG-h5v2N9dKBLQ-ZE-0" />
        <object label="%LabelLines%&amp;nbsp; &amp;nbsp; &amp;nbsp; &amp;nbsp; &amp;nbsp; &amp;nbsp;%LabelIndex%" placeholders="1" LabelLines="1" LabelIndex="A" id="XqSzovL_oSQMRii_2110-5">
          <mxCell style="rounded=0;whiteSpace=wrap;html=1;fillColor=none;strokeColor=#FF0000;fontColor=#FF0000;fontSize=10;align=left;" parent="22vkG-h5v2N9dKBLQ-ZE-135" vertex="1">
            <mxGeometry x="256" y="240" width="80" height="16" as="geometry" />
          </mxCell>
        </object>
        <object label="%LabelLines%&amp;nbsp; &amp;nbsp; &amp;nbsp; &amp;nbsp; &amp;nbsp; &amp;nbsp;%LabelIndex%" placeholders="1" LabelLines="1" LabelIndex="B" id="XqSzovL_oSQMRii_2110-6">
          <mxCell style="rounded=0;whiteSpace=wrap;html=1;fillColor=none;strokeColor=#FF0000;fontColor=#FF0000;fontSize=10;align=left;" parent="22vkG-h5v2N9dKBLQ-ZE-135" vertex="1">
            <mxGeometry x="472" y="304" width="80" height="16" as="geometry" />
          </mxCell>
        </object>
        <object label="%LabelLines%&amp;nbsp; &amp;nbsp; &amp;nbsp; &amp;nbsp; &amp;nbsp; &amp;nbsp;%LabelIndex%" placeholders="1" LabelLines="1" LabelIndex="C" id="XqSzovL_oSQMRii_2110-7">
          <mxCell style="rounded=0;whiteSpace=wrap;html=1;fillColor=none;strokeColor=#FF0000;fontColor=#FF0000;fontSize=10;align=left;" parent="22vkG-h5v2N9dKBLQ-ZE-135" vertex="1">
            <mxGeometry x="472" y="384" width="80" height="16" as="geometry" />
          </mxCell>
        </object>
        <object label="&lt;span style=&quot;color: rgb(255, 0, 0); font-size: 10px;&quot;&gt;%LabelLines%&amp;nbsp; &lt;br&gt;&lt;br&gt;%LabelIndex%&lt;/span&gt;" placeholders="1" LabelLines="3" LabelIndex="D" id="i0EluFVcYHTWUM1-fBGl-0">
          <mxCell style="rounded=0;whiteSpace=wrap;html=1;fillColor=none;strokeColor=#FF0000;labelPosition=center;verticalLabelPosition=middle;align=left;verticalAlign=top;spacing=2;spacingTop=0;" vertex="1" parent="22vkG-h5v2N9dKBLQ-ZE-135">
            <mxGeometry x="376" y="310" width="16" height="80" as="geometry" />
          </mxCell>
        </object>
        <object label="Symbol" Width="16" Height="12" UoM="mm" id="22vkG-h5v2N9dKBLQ-ZE-138">
          <mxCell style="locked=1;" parent="22vkG-h5v2N9dKBLQ-ZE-0" />
        </object>
        <mxCell id="XqSzovL_oSQMRii_2110-0" value="" style="ellipse;whiteSpace=wrap;html=1;aspect=fixed;fillColor=none;" parent="22vkG-h5v2N9dKBLQ-ZE-138" vertex="1">
          <mxGeometry x="417" y="256" width="192" height="192" as="geometry" />
        </mxCell>
        <mxCell id="XqSzovL_oSQMRii_2110-1" value="" style="whiteSpace=wrap;html=1;aspect=fixed;fillColor=none;" parent="22vkG-h5v2N9dKBLQ-ZE-138" vertex="1">
          <mxGeometry x="416" y="256" width="192" height="192" as="geometry" />
        </mxCell>
        <mxCell id="XqSzovL_oSQMRii_2110-2" value="" style="rounded=0;whiteSpace=wrap;html=1;fillColor=none;" parent="22vkG-h5v2N9dKBLQ-ZE-138" vertex="1">
          <mxGeometry x="352" y="256" width="64" height="192" as="geometry" />
        </mxCell>
        <mxCell id="XqSzovL_oSQMRii_2110-3" value="" style="endArrow=none;html=1;rounded=0;exitX=1;exitY=0.5;exitDx=0;exitDy=0;" parent="22vkG-h5v2N9dKBLQ-ZE-138" source="XqSzovL_oSQMRii_2110-2" edge="1">
          <mxGeometry width="50" height="50" relative="1" as="geometry">
            <mxPoint x="558" y="456" as="sourcePoint" />
            <mxPoint x="608" y="352" as="targetPoint" />
          </mxGeometry>
        </mxCell>
        <mxCell id="22vkG-h5v2N9dKBLQ-ZE-124" value="Connection" style="" parent="22vkG-h5v2N9dKBLQ-ZE-0" />
        <object label="Connection" PipingConnector="N" LabelConnector="N" SignalConnector="Y" Direction="270" AuxiliaryConnector="N" id="i0EluFVcYHTWUM1-fBGl-1">
          <mxCell style="vsdxID=1407;fillColor=none;gradientColor=none;shape=stencil(rVFbDsIgEDwNnyQU4glqvcfGblsilmZBS28vZGMsxg9j/JvZmX1kR5g2TLCg0CpE8hdcbR8nYY5CaztPSDZmJEwnTDt4wpH8be6ZL1CcBV39vUxI3KdKh1YbswPTEzuBzlmiVGmKau9zUKM+jlJJQrJBko8QrZ+rrQ5oRJnXyMHBWElhRVx25ebnw/5zVvPFWRm83jxY5zilvf4eSy5xpKZ7AA==);strokeColor=#00ff00;strokeWidth=1;points=[[0.5,0.5,0,0,0]];labelBackgroundColor=none;rounded=0;html=1;whiteSpace=wrap;aspect=fixed;noLabel=1;snapToPoint=1;container=0;fontSize=16;" vertex="1" parent="22vkG-h5v2N9dKBLQ-ZE-124">
            <mxGeometry x="506" y="250" width="12" height="12" as="geometry" />
          </mxCell>
        </object>
        <object label="Connection" PipingConnector="N" LabelConnector="N" SignalConnector="Y" Direction="90 " AuxiliaryConnector="N" id="i0EluFVcYHTWUM1-fBGl-2">
          <mxCell style="vsdxID=1407;fillColor=none;gradientColor=none;shape=stencil(rVFbDsIgEDwNnyQU4glqvcfGblsilmZBS28vZGMsxg9j/JvZmX1kR5g2TLCg0CpE8hdcbR8nYY5CaztPSDZmJEwnTDt4wpH8be6ZL1CcBV39vUxI3KdKh1YbswPTEzuBzlmiVGmKau9zUKM+jlJJQrJBko8QrZ+rrQ5oRJnXyMHBWElhRVx25ebnw/5zVvPFWRm83jxY5zilvf4eSy5xpKZ7AA==);strokeColor=#00ff00;strokeWidth=1;points=[[0.5,0.5,0,0,0]];labelBackgroundColor=none;rounded=0;html=1;whiteSpace=wrap;aspect=fixed;noLabel=1;snapToPoint=1;container=0;fontSize=16;" vertex="1" parent="22vkG-h5v2N9dKBLQ-ZE-124">
            <mxGeometry x="506" y="442" width="12" height="12" as="geometry" />
          </mxCell>
        </object>
        <object label="Connection" PipingConnector="N" LabelConnector="N" SignalConnector="Y" Direction="0" AuxiliaryConnector="N" id="i0EluFVcYHTWUM1-fBGl-3">
          <mxCell style="vsdxID=1407;fillColor=none;gradientColor=none;shape=stencil(rVFbDsIgEDwNnyQU4glqvcfGblsilmZBS28vZGMsxg9j/JvZmX1kR5g2TLCg0CpE8hdcbR8nYY5CaztPSDZmJEwnTDt4wpH8be6ZL1CcBV39vUxI3KdKh1YbswPTEzuBzlmiVGmKau9zUKM+jlJJQrJBko8QrZ+rrQ5oRJnXyMHBWElhRVx25ebnw/5zVvPFWRm83jxY5zilvf4eSy5xpKZ7AA==);strokeColor=#00ff00;strokeWidth=1;points=[[0.5,0.5,0,0,0]];labelBackgroundColor=none;rounded=0;html=1;whiteSpace=wrap;aspect=fixed;noLabel=1;snapToPoint=1;container=0;fontSize=16;" vertex="1" parent="22vkG-h5v2N9dKBLQ-ZE-124">
            <mxGeometry x="603" y="346" width="12" height="12" as="geometry" />
          </mxCell>
        </object>
        <object label="Connection" PipingConnector="N" LabelConnector="N" SignalConnector="Y" Direction="180" AuxiliaryConnector="N" id="i0EluFVcYHTWUM1-fBGl-4">
          <mxCell style="vsdxID=1407;fillColor=none;gradientColor=none;shape=stencil(rVFbDsIgEDwNnyQU4glqvcfGblsilmZBS28vZGMsxg9j/JvZmX1kR5g2TLCg0CpE8hdcbR8nYY5CaztPSDZmJEwnTDt4wpH8be6ZL1CcBV39vUxI3KdKh1YbswPTEzuBzlmiVGmKau9zUKM+jlJJQrJBko8QrZ+rrQ5oRJnXyMHBWElhRVx25ebnw/5zVvPFWRm83jxY5zilvf4eSy5xpKZ7AA==);strokeColor=#00ff00;strokeWidth=1;points=[[0.5,0.5,0,0,0]];labelBackgroundColor=none;rounded=0;html=1;whiteSpace=wrap;aspect=fixed;noLabel=1;snapToPoint=1;container=0;fontSize=16;" vertex="1" parent="22vkG-h5v2N9dKBLQ-ZE-124">
            <mxGeometry x="345" y="346" width="12" height="12" as="geometry" />
          </mxCell>
        </object>
        <mxCell id="22vkG-h5v2N9dKBLQ-ZE-136" value="Origo" style="" parent="22vkG-h5v2N9dKBLQ-ZE-0" />
        <object label="origo" id="XqSzovL_oSQMRii_2110-4">
          <mxCell style="vsdxID=1407;fillColor=none;gradientColor=none;shape=stencil(rVFbDsIgEDwNnyQU4glqvcfGblsilmZBS28vZGMsxg9j/JvZmX1kR5g2TLCg0CpE8hdcbR8nYY5CaztPSDZmJEwnTDt4wpH8be6ZL1CcBV39vUxI3KdKh1YbswPTEzuBzlmiVGmKau9zUKM+jlJJQrJBko8QrZ+rrQ5oRJnXyMHBWElhRVx25ebnw/5zVvPFWRm83jxY5zilvf4eSy5xpKZ7AA==);strokeColor=#ff0000;strokeWidth=1;points=[[0.5,0.5,0,0,0]];labelBackgroundColor=none;rounded=0;html=1;whiteSpace=wrap;aspect=fixed;noLabel=1;snapToPoint=1;" parent="22vkG-h5v2N9dKBLQ-ZE-136" vertex="1">
            <mxGeometry x="508" y="348" width="8" height="8" as="geometry" />
          </mxCell>
        </object>
      </root>
    </mxGraphModel>
  </diagram>
</mxfile>
